/vscmnt/brussel_pixiu_data/_data_brussel/112/vsc11236/PredSimResults/SUBJ09mtu3D/worker7.mot
version=1
nRows=4
nColumns=50
inDegrees=yes
endheader
                time	         pelvis_tilt	         pelvis_list	     pelvis_rotation	           pelvis_tx	           pelvis_ty	           pelvis_tz	       hip_flexion_r	     hip_adduction_r	      hip_rotation_r	        knee_angle_r	       ankle_angle_r	         mtp_angle_r	       hip_flexion_l	     hip_adduction_l	      hip_rotation_l	        knee_angle_l	       ankle_angle_l	         mtp_angle_l	    lumbar_extension	      lumbar_bending	     lumbar_rotation	 ercspn_r/activation	 intobl_r/activation	 extobl_r/activation	    abd_r/activation	    add_r/activation	hamstrings_r/activation	bifemsh_r/activation	glut_max_r/activation	iliopsoas_r/activation	rect_fem_r/activation	  vasti_r/activation	gastroc_r/activation	 soleus_r/activation	tib_ant_r/activation	 ercspn_l/activation	 intobl_l/activation	 extobl_l/activation	    abd_l/activation	    add_l/activation	hamstrings_l/activation	bifemsh_l/activation	glut_max_l/activation	iliopsoas_l/activation	rect_fem_l/activation	  vasti_l/activation	gastroc_l/activation	 soleus_l/activation	tib_ant_l/activation	
          1.22981287	         -2.37575025	         -1.84971775	          8.24497235	          1.52496796	          0.99054084	         -0.00743303	         28.63775552	         -0.63109853	         -9.29463821	         -8.90350463	          5.72298272	          0.22403237	        -14.01284675	         -3.33890706	         -6.24752512	        -12.51684992	          7.75475954	         32.86402539	        -13.55125674	          0.57531042	         -4.71027524	          0.04873360	          0.14017615	          0.02108156	          0.02260983	          0.26151136	          0.03833617	          0.08629291	          0.04735878	          0.12027532	          0.01523769	          0.01635185	          0.01000000	          0.00999999	          0.28477856	          0.04031468	          0.00999999	          0.00999999	          0.02540264	          0.00999999	          0.02178397	          0.17409914	          0.01637506	          0.01204968	          0.01000000	          0.00999999	          0.17802580	          0.28548794	          0.01029198	
          1.24211100	         -2.39350424	         -1.85542342	          8.09264357	          1.54472729	          0.98859578	         -0.00665398	         28.34739798	         -0.44679063	         -9.27907371	        -10.26337870	          5.41391337	          0.20390854	        -14.65928648	         -3.53905363	         -6.82837272	        -13.33091638	          6.51702779	         34.65707625	        -13.06639761	          0.86565657	         -4.89507369	          0.04044387	          0.11633176	          0.01749552	          0.05133540	          0.23310836	          0.05559859	          0.07161423	          0.10707341	          0.09981613	          0.01264571	          0.01357036	          0.01654531	          0.01620861	          0.28436389	          0.06358549	          0.01000000	          0.01000000	          0.02108157	          0.01388706	          0.03680456	          0.14448436	          0.01358961	          0.01000001	          0.00999999	          0.01000000	          0.14774308	          0.26128473	          0.00999999	
          1.25440913	         -2.39278855	         -1.87456257	          7.90999455	          1.56478197	          0.98682522	         -0.00579167	         27.96410114	         -0.26793285	         -9.22026573	        -11.63480793	          5.08617604	          0.20827133	        -15.11440314	         -3.78107562	         -7.42334275	        -14.54319708	          5.17738869	         36.40273275	        -12.56189641	          1.17154038	         -5.05561062	          0.03806160	          0.09654338	          0.01451948	          0.14495675	          0.24030878	          0.05127612	          0.05943244	          0.10557383	          0.08283711	          0.01049464	          0.01503987	          0.01373091	          0.01345147	          0.32381207	          0.05678922	          0.00999999	          0.00999999	          0.01749554	          0.01152483	          0.03054403	          0.11990716	          0.01127798	          0.05512789	          0.01000000	          0.00999999	          0.12261154	          0.22290568	          0.00999999	
          1.26670726	         -2.37688471	         -1.88660773	          7.69154147	          1.58475474	          0.98544964	         -0.00481596	         27.62784698	         -0.10533506	         -9.20422225	        -13.05500547	          4.53770810	          0.18572352	        -15.26135594	         -4.05630803	         -8.02287952	        -16.31388024	          3.71872422	         38.01243458	        -12.08409685	          1.46876873	         -5.18554589	          0.03601506	          0.08012106	          0.01204967	          0.18349162	          0.26637897	          0.05582580	          0.04932280	          0.08761543	          0.06874627	          0.00999999	          0.09587746	          0.01139524	          0.01116334	          0.35889027	          0.08545324	          0.00999999	          0.00999999	          0.01451949	          0.04813021	          0.02534864	          0.09951060	          0.00999999	          0.04867792	          0.01000000	          0.00999999	          0.10175495	          0.18498875	          0.00999999	
